<?xml version="1.0"?><svg width="1992.7278" height="1898.7671" xmlns="http://www.w3.org/2000/svg" xmlns:xlink="http://www.w3.org/1999/xlink">
 <defs>
  <filter id="filter3186" color-interpolation-filters="sRGB"/>
  <linearGradient id="linearGradient4038">
   <stop offset="0" id="stop4040" stop-color="#22280b"/>
   <stop offset="1" id="stop4042" stop-color="#88aa00"/>
  </linearGradient>
  <linearGradient id="linearGradient4030">
   <stop offset="0" id="stop4032" stop-color="#22280b"/>
   <stop offset="1" id="stop4034" stop-color="#88aa00"/>
  </linearGradient>
  <linearGradient id="linearGradient4022">
   <stop offset="0" id="stop4024" stop-color="#22280b"/>
   <stop offset="1" id="stop4026" stop-color="#89a02c"/>
  </linearGradient>
  <linearGradient id="linearGradient4008">
   <stop offset="0" id="stop4010" stop-color="#88aa00"/>
   <stop offset="1" id="stop4012" stop-color="#222b00"/>
  </linearGradient>
  <linearGradient xlink:href="#linearGradient4008" id="linearGradient4014" x1="0.726993" y1="0.664599" x2="0.436257" y2="0.208537"/>
  <linearGradient xlink:href="#linearGradient4022" id="linearGradient4028" x1="-0.042394" y1="0.584694" x2="0.402048" y2="0.668015"/>
  <linearGradient xlink:href="#linearGradient4030" id="linearGradient4036" x1="0.469273" y1="0.052124" x2="0.634503" y2="0.588636"/>
  <linearGradient xlink:href="#linearGradient4038" id="linearGradient4044" x1="0.601538" y1="0.217011" x2="0.390503" y2="0.991918"/>
  <linearGradient xlink:href="#linearGradient4038" id="linearGradient4052" x1="0.28734" y1="0.795236" x2="0.839084" y2="0.21622"/>
 </defs>
 <metadata id="metadata7">image/svg+xml</metadata>
 <g>
  <title>Layer 1</title>
  <g id="layer2" display="inline">
   <path d="m91.879883,1386.920776c-2.14209,-17.69873 -10.041016,-38.781616 -5.840576,-53.096313c12.815186,-43.671509 55.756592,-59.578613 88.670898,-138.050293c-40.434326,-59.718018 -66.708008,-97.111572 -101.185059,-130.575684c-31.205807,-30.289063 -69.298337,-57.833008 -72.948726,-90.43396c-4.19361,-37.450806 12.76977,-21.204834 108.294193,-152.788452c-30.414566,-25.104858 -58.038094,-83.479248 -54.447033,-128.333008c7.14624,-89.258789 70.994877,-208.882935 96.109623,-290.15564c17.324951,-56.064575 -5.034912,-74.200195 9.310059,-131.588989c45.69751,1.997192 110.470703,14.741455 159.05542,2.74707c86.844971,-21.440063 151.635254,-75.77124 174.389404,-83.453491c43.012451,-14.522217 71.618408,-0.231445 104.068604,6.37146c188.9729,-49.73291 244.246094,-200.479247 356.807129,-197.518187c86.837891,2.28442 102.653076,135.787474 165.660645,142.298094c78.697998,-54.827637 149.451904,9.503662 223.004395,31.857788c9.800537,-38.358643 24.58252,-70.90564 67.963135,-70.087158c0,0 45.299805,-51.040043 76.458984,-55.220093c11.98999,-1.608521 33.981445,12.743038 33.981445,12.743038c0,0 35.571533,-29.834229 57.343994,-31.85779c11.145752,-1.035879 27.610107,4.24769 27.610107,4.24769c17.234863,-18.748539 48.013794,-17.18116 76.45874,-19.11463c42.480835,-3.64026 77.142578,-8.397699 99.821045,-14.86694c-3.190063,23.53723 -10.739136,44.894899 2.123901,76.458738c15.013306,31.414925 13.04834,55.553223 8.495361,78.582397c-1.401001,40.383057 -1.867188,82.63562 -16.990845,95.573486c6.668091,29.025879 10.411133,58.05188 -19.114624,87.077881c13.02002,45.847534 -114.057739,152.004761 -135.926514,155.041138c-14.307739,73.171509 -8.86377,144.148315 2.123779,214.509155c23.371582,74.333496 76.258545,108.422607 63.715698,133.802734c-14.501587,29.342896 -80.696045,62.316406 -121.05957,93.449463c4.99585,14.452515 14.904541,21.536011 25.486084,27.610107c27.066772,-95.096069 143.557373,-79.243652 176.279663,-67.963257c38.779663,-16.605713 56.522095,-2.824341 70.08728,16.990723c54.118896,23.91333 106.563721,41.130127 155.041138,42.477051c-36.251099,40.815186 -82.139404,78.125854 -89.201782,129.555054c0.871094,18.599609 -18.248291,53.112549 -44.60083,70.087158c-7.113403,21.219116 -10.125854,44.781738 -36.105591,55.220093c-22.227051,20.343506 -38.556519,44.618774 -84.954102,48.848511c-14.992798,12.486328 -22.52356,26.216064 -53.096313,36.105591c17.271118,10.36853 32.802612,23.172485 36.105591,53.096313c32.960571,32.605225 37.487305,65.552734 33.981567,91.325684c15.747803,20.530518 23.895752,41.061035 25.486206,61.591553c4.862793,34.32019 7.650391,68.294434 -4.247681,99.821167c17.560669,90.479614 -9.029419,134.68457 -40.353149,178.403687c-10.016724,-11.292114 -16.316772,-23.82312 -42.477051,-29.734009c-38.070068,4.499756 -68.807251,-3.832764 -95.573364,-19.114624c-30.497314,0.901978 -78.984863,-4.255737 -104.068848,-22.300537c-60.011719,11.638794 -76.89502,-16.533691 -101.944824,-37.167358c-51.574707,-16.438843 -84.343018,-50.116821 -101.944824,-97.697144c-20.982666,-16.282959 -31.621826,-32.565918 -44.601074,-48.848633c6.262695,20.457886 16.251221,43.39978 6.371826,53.096191c5.36792,24.070435 6.460205,48.140625 -10.619385,72.210938c7.213867,25.345947 15.617188,50.49353 6.371582,78.582642c12.412842,31.316772 3.134766,59.296631 -21.238525,84.954102c1.371582,22.573242 -3.522705,50.368042 -19.114746,87.078003c-39.046631,-51.76416 -114.527832,-86.216431 -190.084717,-129.555054c-27.687012,-10.077637 -43.663574,-27.181396 -57.343994,-45.662842c-43.235352,-26.548218 -69.016113,-52.034424 -62.653809,-79.644409c-25.209473,-17.060303 -35.136719,-81.516113 -12.74292,-101.944946c-24.165527,0.401489 -42.971924,-1.876465 -61.591797,-4.247681c-56.12085,45.051514 -142.863281,72.434204 -259.110107,80.706421c-9.861572,0.701782 -15.481445,-6.511597 -21.238281,-12.743164c-9.157471,10.172974 -12.505615,20.873901 -36.105713,29.733887c-13.60376,85.195679 -76.071289,109.068726 -116.811768,112.564209c-42.939697,32.94397 -83.774902,44.844482 -121.05957,21.238525c-8.293213,5.153931 -15.960938,36.928711 -87.077881,25.486206c-25.081055,11.416016 -45.999512,30.047363 -91.325684,6.371582c2.836426,-25.201172 12.741699,-47.574829 -4.247803,-80.706421c-23.52319,-99.843994 -7.695801,-99.523315 -2.123779,-125.307251c-21.058113,-30.449463 -25.665771,-61.584229 -12.743164,-93.449463c-3.43457,-43.209839 -1.972656,-84.100098 21.238525,-114.68811z" id="path3051" fill="#000000"/>
  </g>
  <g id="layer3" display="inline">
   <path d="m1353.447998,179.510742c11.916992,-26.733643 15.188477,-59.642822 64.777588,-59.467896c26.55249,-16.32666 55.879883,-60.402218 79.644287,-48.84864c46.652344,20.107796 72.76416,-40.378407 118.935791,-18.052605c21.072876,-32.690062 105.956421,-12.212402 148.669678,-33.981691c-1.714966,19.123781 -12.553101,36.727171 1.06189,58.405893c5.500244,39.618279 10.562744,59.681389 1.06189,78.582512c1.411499,31.713501 4.760132,64.589478 -7.433472,88.139893c9.143433,37.314575 4.631592,67.80127 -20.176636,88.139893c-1.00647,61.514282 -73.904175,92.21814 -111.502197,138.050293c19.687134,-44.864136 31.45874,-108.285767 28.671997,-226.190186c-136.377808,14.54126 -217.587769,-5.359863 -303.710815,-64.777466z" id="path3054" fill="url(#linearGradient4052)"/>
   <path d="m1597.691162,967.459961c36.831787,-59.401733 88.186646,-86.645386 164.598511,-58.406006c35.361572,-11.56897 56.584473,1.099854 72.210938,23.362427c20.816406,3.383911 95.961914,27.747314 126.369263,31.857788c-40.785522,34.335571 -58.614746,66.012207 -67.963257,103.006836c-7.911987,31.309082 -35.57373,45.179688 -47.786621,73.272949c-21.189331,48.740967 -28.383545,34.09436 -37.16748,48.848633c-16.984619,28.528564 -36.706421,50.997925 -77.52063,56.281982c-23.008423,15.0354 -46.016846,41.255371 -69.025269,32.919678c-4.955566,-17.69873 -15.574829,-36.813477 -31.857788,-57.343994c25.660889,-34.493042 27.546997,-86.560303 29.365234,-132.54541c1.806274,-45.6875 3.641235,-85.357422 -0.693237,-100.016357c-2.590576,-8.761353 -31.87146,-17.551636 -60.529663,-21.238525z" id="path3056" fill="url(#linearGradient4028)"/>
   <path d="m1616.452148,1234.317139c19.885254,23.778442 39.615234,47.556763 45.804565,71.335083c39.056274,14.987915 41.800781,38.045166 45.804688,60.82251c8.05896,14.807739 20.221069,12.177124 21.025024,57.81897c33.337036,65.919312 24.057251,76.687256 25.530396,101.37085c5.648682,23.432373 14.419434,42.404419 6.758057,84.851074c-1.388428,42.815674 6.612061,83.070679 -15.017944,131.406738c-27.25,-6.088379 -58.818115,-1.381592 -78.843872,-25.530518c-22.923462,13.074951 -47.165039,6.376709 -72.085815,-10.512451c-31.287598,10.297119 -62.574707,0.033569 -93.862061,-11.263428c-46.46167,4.812622 -67.651855,-17.943726 -93.111084,-36.042969c-35.105957,-22.443237 -77.205566,-22.157227 -97.616455,-92.360107c-37.337891,-16.011841 -42.610352,-37.36792 -57.818848,-57.068115c79.429932,-27.357178 164.880127,-114.384644 227.52124,-135.911865c70.69873,6.902588 106.824463,-58.633423 135.912109,-138.915771z" id="path3058" fill="url(#linearGradient4014)"/>
   <path d="m1072.803955,1463.340332c27.046631,17.267334 116.141602,32.426758 153.182617,53.313477c12.212891,18.522095 8.717773,37.044189 7.509033,55.566284c-1.905273,22.001953 11.301025,40.225952 -12.014404,67.580444c14.22168,36.546631 10.063477,61.605591 9.010742,88.605713c0.978271,25.780762 -1.595459,51.561523 -16.519775,77.342163c1.75708,22.966187 -2.825928,44.347168 -9.010742,65.327881c-20.895264,-14.90564 -41.95166,-39.373535 -64.443359,-53.366943c-42.456299,-26.414551 -86.176514,-42.452271 -116.522217,-75.786987c-20.283691,-5.713135 -41.758057,-5.868652 -56.317383,-38.295654c-19.225098,-8.134521 -38.719727,-13.441284 -54.064209,-62.324219c-17.436768,-25.292725 -31.955566,-52.878052 -21.776123,-99.869141c52.284912,5.107422 65.60791,1.865723 92.360107,1.501831c44.737793,-13.440552 66.898438,-54.542358 88.605713,-79.594849z" id="path3060" fill="url(#linearGradient4036)"/>
   <path d="m92.885986,1416.784668c-3.238037,23.689209 -11.970703,41.098877 -2.252686,79.594971c-9.358894,26.332153 -14.657234,61.526733 5.256348,97.616333c-9.702385,25.161377 -6.312012,88.714478 5.256104,112.634277c10.599121,32.773682 9.410156,60.832153 0,85.602051c35.458984,14.982056 50.781494,-4.55542 73.587646,-11.263428c45.068359,7.317261 72.703369,-5.704224 93.862061,-26.281372c41.807617,25.383179 80.022461,4.056396 117.890625,-21.775879c59.523193,-8.432373 88.086426,-37.917847 97.616211,-80.345825c14.45874,-6.796631 8.781494,-16.110352 8.26001,-24.779541c32.78418,-4.00708 31.842773,-24.877197 42.800781,-39.797485c-3.400391,-30.450195 -25.722412,-46.183472 -46.55542,-63.075195c-72.331055,23.02356 -110.108643,28.491699 -158.438721,24.028687c-69.685547,-6.435059 -106.906006,-47.123657 -159.189941,-71.335083c-29.501953,-6.593262 -36.211182,6.513428 -48.808105,-2.252686c-28.275635,-19.676758 -20.05127,-37.057739 -29.284912,-58.569824z" id="path3062" fill="url(#linearGradient4044)"/>
  </g>
  <g id="layer4" display="inline">
   <path d="m185.329346,1214.888672c12.5,10.20459 15.626221,18.065674 42.477051,31.85791c13.224365,199.169678 183.19873,164.536987 250.614502,263.357666c-37.633545,0.518555 -66.905762,14.9729 -99.070068,24.606445c-98.811768,29.595459 -172.100098,-93.64502 -259.109863,-78.58252c6.398682,-45.046387 -29.739746,-107.899414 -19.86573,-130.799072c5.266121,-12.212891 24.794685,-22.53833 41.907234,-42.067383c17.449707,-19.913574 32.536377,-49.098389 43.046875,-68.373047z" id="path3065" fill="#ffff00"/>
   <path d="m240.061279,1245.580566c2.256348,206.261963 238.72998,148.476074 315.375977,346.913574c91.789795,8.188477 178.403809,-12.895996 237.282715,-60.071533c-124.455811,2.428467 -244.529297,-76.057617 -273.325684,-166.69873c-91.952637,-51.633301 -210.920166,-99.682861 -279.333008,-120.143311z" id="path3067" fill="#ffff00"/>
   <path d="m530.455322,1373.115723c71.923828,175.908691 414.271729,168.892578 479.990479,140.174316c24.924316,-10.891602 62.153564,-85.344971 128.29248,-141.472656c51.522949,-43.724121 124.537842,-87.627441 192.54541,-70.349609c8.791748,2.233643 19.776855,9.202393 27.474121,3.684814c8.251709,-5.915527 4.130859,-19.783691 6.710693,-29.433105c29.029541,-108.581055 97.255615,-197.781494 62.314453,-304.011841c-125.575439,261.827271 -186.273438,181.8573 -294.135986,180.335815c-20.739746,-0.292603 -45.268311,2.315308 -70.104736,10.811035c-37.548584,12.843872 -67.846191,43.600586 -92.764404,65.219727c-62.734863,54.428711 -99.819336,86.03833 -152.75293,77.303345c-12.266113,-2.024048 -22.807129,-11.776001 -35.893066,-11.90625c-17.154785,-0.170654 -31.135742,14.547119 -45.584717,24.697876c-59.550781,41.835327 -110.691162,105.297119 -206.091797,54.946533z" id="path3069" fill="#ffff00"/>
   <path d="m1083.71875,1444.264771c145.032227,75.975952 174.82959,60.359497 233.350586,13.209839c29.173584,-23.504639 82.05127,-60.79248 122.947998,-85.210693c9.887207,-5.903564 18.300293,-13.282349 27.056641,-15.077148c10.137939,-2.077759 19.782471,-0.338867 28.407227,-1.690918c82.040283,-12.858276 86.60083,-95.152588 107.519531,-134.235596c42.108765,-78.673706 45.008667,-236.932739 36.105469,-226.190186c-8.361572,10.088745 -96.786865,-42.881714 -87.078125,-50.972534c-29.428955,21.361694 -60.277344,46.27063 -100.882813,95.573364c-5.175537,69.190674 -64.789795,177.842041 -78.58252,263.357666c-0.987061,6.119263 -9.739746,9.353027 -15.965332,11.269775c-9.485352,2.920532 -20.643066,2.198486 -29.769775,-0.515137c-83.51001,-24.831421 -175.275879,64.542114 -243.108887,130.481567z" id="path3071" fill="#ffff00"/>
   <path d="m766.199951,1288.161987c-66.799805,-25.68396 -133.669922,-48.398071 -206.009766,-93.450073c-56.76001,-140.98999 -198.790039,-183.101929 -264.420166,-216.631958c-48.909912,-24.98999 61.380127,-93.839966 113.630127,-144.420044c-60.420166,-62.969971 -97.050049,-140.549927 -33.98999,-279.289917c-93.680176,-6.98999 -164.040039,133.23999 -239.030029,256.929932c-31.23999,51.540039 -66.800049,96.690063 -99.580078,132.73999c-7.050049,7.75 -16.499998,12.980103 -21.379879,21.300049c-4.28003,7.300049 2.279779,17.689941 9.82983,28.47998c20.98999,30 71.530029,71.200073 122.51001,133.257935c20.52002,24.974121 30.540039,62.468018 59.870117,85.687012c39.379883,31.177002 89.859863,40.877075 141.969971,59.174072c41.320068,14.509033 93.129883,36.075928 142.609863,58.744019c37.560059,17.209961 69.950195,47.184937 103.02002,50.927979c60.290039,6.823975 114.060059,-62.224976 170.969971,-93.448975l0,0z" id="path3073" fill="#ffff00"/>
   <path d="m110.994377,804.985229c81.696297,-95.435669 144.298103,-248.154053 253.800301,-260.171875c0.971191,-81.815674 -2.705811,-75.315552 -4.247803,-109.378418c47.432861,5.663574 94.865479,-7.079468 142.298096,-38.22937c-24.395508,-70.831177 20.379883,-133.976807 71.14917,-196.456299c-125.028809,-17.358765 -240.37207,161.680542 -403.531982,83.89209c47.231934,179.687866 -175.798098,358.545166 -59.467781,520.343872z" id="path3075" fill="#ffff00"/>
   <path d="m509.632568,387.307495c-9.567139,-173.447388 137.193359,-177.818848 256.751709,-250.315918c15.566895,-9.439461 139.775635,-123.394777 199.041504,-116.120848c38.362793,4.70825 60.688477,54.483267 82.600342,81.406981c64.463379,79.207886 250.941895,151.576782 272.573242,242.228638c-47.840332,-6.928589 -151.176758,-101.436768 -166.69873,-96.114502c-25.0354,8.584473 -43.626465,10.138794 -89.356445,41.299316c-47.429199,-78.786987 -102.414063,-42.349243 -157.687988,-1.501831c-45.242676,-14.90686 -94.183105,-41.52417 -116.388916,16.519653c-110.725342,-99.394287 -192.857422,13.277954 -280.834717,82.598511z" id="path3077" fill="#ffff00"/>
   <path d="m1445.998779,1029.322876c26.522217,-35.149902 56.532227,-67.129028 89.984863,-95.978638c37.73291,-32.541138 122.899536,-68.488647 126.273071,-85.738037c5.349121,-27.352173 -40.177612,-78.30188 -49.572632,-119.591553c-15.961182,-70.147095 -28.819092,-147.207397 -5.367432,-218.944336c32.557983,-99.592285 39.058105,-177.418457 33.914917,-251.667725c-190.561646,61.400757 -402.109741,-176.154671 -507.969604,-99.375854c124.718018,80.363892 204.523193,151.714966 194.095459,193.988647c39.30542,9.175293 94.487549,20.429077 137.251709,28.001587c59.964355,10.618164 102.694824,20.154175 106.03833,60.604004c1.816406,21.974854 0.892822,44.694946 -4.717773,66.779663c-11.897705,46.830444 -27.774902,84.238281 -35.450928,128.500854c-8.000488,46.133545 -12.810791,74.989136 8.733154,118.147827c5.278564,10.574463 21.152588,29.915039 20.923096,43.997803c-0.768555,47.15918 -77.512451,112.028687 -127.652344,165.197021c12.246094,23.961304 12.169922,44.842285 13.516113,66.078735z" id="path3079" fill="#ffff00"/>
   <path d="m1074.161377,305.880005c18.093018,-18.733765 47.045166,-38.528687 82.830322,-37.167358c14.802002,0.562988 33.227295,19.700195 47.826172,29.081543c39.708252,25.516602 81.744385,49.674927 141.552246,69.675659c93.46167,31.255493 192.69165,27.791992 204.595947,74.33667c18.66748,72.986816 -25.781982,141.14502 -35.445557,199.939941c-11.748291,71.480347 17.811035,127.655884 19.516846,168.548462c2.019531,48.413818 -62.076172,91.038086 -105.323975,135.539673c-51.250244,65.987549 -76.947266,177.359985 -153.786133,197.905151c-31.209473,8.344727 -65.388672,-1.399902 -97.711914,-1.729004c-42.060547,-0.427979 -82.832764,0.432495 -118.920898,5.976685c52.000977,-43.485962 133.577881,-76.217041 211.756836,-110.183716c17.862793,-7.760742 38.277832,-11.350586 52.662598,-23.618896c16.201904,-13.818115 21.706543,-34.56543 28.426025,-51.960815c39.995117,-103.536865 -10.108398,-206.966553 29.5354,-306.29541c6.780273,-16.988403 18.141846,-31.864502 21.683105,-52.709351c3.211914,-18.904541 -1.506592,-39.057129 -25.21167,-49.116699c-29.120361,-12.357544 -71.90625,-3.689697 -102.677246,-12.468628c-37.470703,-10.690552 -57.822021,-25.557373 -79.186523,-36.111816c-5.205811,-21.866455 26.488037,-113.520264 12.74292,-125.307251c-39.865723,-34.18689 -88.000977,-48.260498 -134.864502,-74.334839z" id="path3081" fill="#ffff00"/>
   <path d="m1195.199951,515.710571c-14.165771,54.959229 -14.398438,135.462402 -21.025146,204.243408c8.693359,34.275146 69.436523,89.355835 9.26123,166.902954c-7.975586,10.278076 -25.438965,29.513672 -38.963867,40.086426c-64.916016,50.746826 -138.600098,111.574463 -223.514648,180.511841c-16.586914,13.465942 -46.164795,27.241455 -62.435547,41.311646c-81.322021,0.3125 -148.114258,-116.886963 -314.325928,-104.350586c-12.467285,-75.661987 -37.233887,-139.054932 -119.414551,-195.30835c-18.582031,10.257324 -175.711182,101.923584 -90.831543,134.705811c75.678223,29.522583 181.254395,78.291748 235.003418,188.179199c7.038574,20.476563 159.140137,124.019531 283.912598,115.185547c36.480225,-2.583008 67.877441,-36.746704 96.040283,-58.117554c17.766602,-13.481567 42.968994,-33.868408 54.893066,-45.710938c75.359619,-74.843384 118.895508,-91.231567 182.389893,-120.987671c148.64624,-44.308105 164.030762,-110.826294 171.204102,-178.713135c0.714844,-74.86377 -14.043213,-97.443848 4.078125,-197.770996c5.139404,-28.454712 30.547363,-62.085205 24.455811,-107.092407c-2.98584,-22.062256 -42.17041,-14.855957 -67.541504,-18.307373c-38.100098,-5.182983 -81.252197,-10.670288 -123.185791,-44.767822z" id="path3083" fill="#ffff00"/>
   <path d="m1157.655273,719.953979l-22.526855,15.017944c39.840576,139.161499 -190.660889,226.002319 -316.773926,257.383789c-31.596191,7.862305 -65.597412,10.252808 -76.695313,11.436646c-26.472168,-43.565674 -69.987793,-84.687866 -115.429199,-105.578857c-33.852539,-15.563232 -82.155029,-6.670776 -87.3125,-23.575073c-53.312988,-174.744263 -22.116699,-268.4104 51.061035,-318.379517c-3.210205,-76.001099 -3.687744,-111.218384 27.981201,-123.885986c90.014648,-53.489136 128.327148,-85.621948 164.247803,-120.905884c-62.722168,-37.708862 -84.842529,-54.028442 -152.591064,-2.709961c-97.578857,73.512329 -174.095215,145.349243 -254.394043,139.372925c6.878662,39.667603 10.239502,69.688843 13.333984,105.018555c-75.866943,127.90686 -9.874023,254.15564 40.730469,280.941528c91.392578,53.965454 120.000244,129.386719 129.904785,201.239868c116.731445,-29.147095 227.734375,97.910767 286.091064,100.619995c17.851318,0.135376 88.830322,-52.009644 144.705078,-97.574463c56.151123,-45.789795 109.119385,-85.082642 146.268066,-118.377197c22.655273,-20.199585 32.930908,-41.589722 49.93335,-60.377808c14.36499,-15.873413 21.69751,-60.025879 -28.533936,-139.666504z" id="path3085" fill="#ffff00"/>
   <path d="m589.923096,565.520874c-23.505371,18.051636 -49.794189,50.566895 -60.458496,96.651855c-19.53125,84.402466 16.022217,203.535034 29.655762,204.67395c103.664795,24.705688 145.369873,73.25061 189.029541,116.01123c206.935303,-2.830933 424.062744,-158.580933 378.045898,-245.835938c-33.616211,24.350098 -67.461914,48.413574 -95.573486,79.644531c-66.569824,-47.168213 -176.895752,99.666504 -243.180908,107.254517c-159.77417,-48.193237 -162.395508,-172.253296 -243.181152,-258.579102c23.398682,-26.85083 39.815186,-66.349976 45.662842,-99.821045z" id="path3087" fill="#ffff00"/>
   <path d="m1141.140137,649.369995c11.649902,-21.460083 0,-77.099976 -2.540039,-124c-1.409912,-25.820068 5.189941,-38.52002 7.649902,-65.98999c1.709961,-19.02002 -1.819824,-42.280029 3.75,-62.030029c-28.77002,2.040039 -62.27002,-32.200073 -90.589844,-52.810059c-6.890137,-5.01001 -12.410156,-13.309937 -20.780029,-14.890015c-7.050049,-1.329956 -13.620117,5.080078 -20.430176,8.25c-22.98999,10.720093 -45.97998,25.640015 -68.97998,38.220093l-60.349854,-43.25c-8.910156,-2.930054 -19.689941,0.429932 -28.699951,-0.190063c-15.470215,-1.059937 -28.820068,-3.48999 -41.02002,5.170044c-53.290039,37.829956 -82.060059,143.849976 -86.120117,190.959961c-45.22998,-7.079956 -87.300049,8.48999 -115.699951,122.040039c24.860107,7.910034 59.379883,-0.209961 73,11.150024c8.649902,7.969971 15.550049,36.339966 15.550049,36.339966l15.689941,62.069946c31.830078,42.560059 82.850098,63.01001 179.560059,30.820068c119.839844,-23.430054 151.429932,-68.849976 202.540039,-78.839966l32.879883,-50.040039c12.939941,5.109985 14.620117,27.910034 18.090088,47.910034c-28.080078,15.219971 -79.530029,55.75 -123.140137,87.789917c-28.679932,-4.77002 -63.26001,4.080078 -105.069824,27.960083c-48.73999,27.849976 -104.25,71.949951 -124.700195,74.159912c-83.76001,14.560059 -181.01001,-111.72998 -232.780029,-234.279907c0,0 21.780029,-49.860107 34.070068,-109.210083c9.550049,-46.130005 -6.869873,-71.609985 11.780029,-100.25c11.919922,-18.329956 69.26001,-54.109985 100.620117,-77.02002c37.52002,-27.389893 70.409912,-54.059937 88.849854,-71.01001c10.26001,-9.429932 13.810059,-17.25 15.650146,-17.699951c16.429932,-3.98999 59.599854,11.570068 88.839844,6.410034c35.51001,-6.26001 54.699951,-45.119995 90.75,-44.73999c29.640137,0.309937 39.820068,41.329956 70.830078,64.079956c34.949951,25.630005 81.359863,38.570068 110.119873,58.02002c7.980225,5.390015 20.050049,9.900024 19.25,18.089966l-2.719971,27.700073c-19.98999,92.709961 -19.569824,195.609985 -28.819824,293.689941l-27.030029,-64.579956z" id="path3089" fill="#ffff00"/>
   <path d="m946.730469,394.019897c20.912109,-15.365356 43.561035,-29.334106 61.402588,-40.134644c11.216797,-6.789917 18.2854,-13.291016 28.861084,-15.085571c29.556885,26.059448 66.892822,56.446777 97.697266,76.45874c-6.128418,73.081055 -5.477539,150.681519 -3.185791,229.375977c-107.749512,132.444214 -347.86377,196.599487 -391.85083,121.05957c-11.403809,-34.177734 -30.50415,-70.279663 -31.85791,-101.944824c-19.299072,-22.327148 -44.853516,-17.546997 -67.963135,-23.362427c5.939209,-98.303589 61.712891,-102.880859 96.635254,-103.006836c0,0 39.8396,-170.030029 108.316406,-194.33252c39.259033,-13.932861 101.945068,50.972534 101.945068,50.972534z" id="path3091" fill="#ffff00"/>
  </g>
  <g id="layer5">
   <path d="m1570.080078,252.779907c59.530029,-49.089966 134.900024,-88.679932 155.040039,-161.409904c-6.030029,48.079948 -53.670044,103.789909 -129.02002,164.599968l-26.02002,-3.190063z" id="path3094" fill="#222b00"/>
   <path d="m1488.840088,241.630005c-2.48999,-42.359985 -28.140137,-49.98999 -46.189941,-69.02002c17.699951,20.969971 42.299805,38.48999 38.76001,70.089966l7.429932,-1.069946z" id="path3096" fill="#222b00"/>
   <path id="path3098" d="m1581.22998,245.880005c-2.48999,-42.369995 -15.929932,-127.510002 -39.289795,-141.770012c20.879883,19.379997 30.619873,118.669914 27.079834,150.270012l12.209961,-8.5z" fill="#222b00"/>
   <path d="m1646.008667,69.601318c26.18396,29.599609 11.696655,68.442505 9.026367,104.599854c0.777832,-36.128906 6.206665,-73.807983 -9.026367,-104.599854z" id="path3100" fill="#222b00"/>
   <path d="m1678.928345,225.70459c28.450684,23.464111 57.638306,46.637085 48.848633,83.89209c13.402222,-49.030762 -19.869019,-64.938721 -48.848633,-83.89209z" id="path3102" fill="#222b00"/>
   <path d="m1659.813721,278.27002c20.011108,30.438843 26.517212,64.25415 23.893433,100.351929c4.884155,-37.733521 4.801514,-73.811523 -23.893433,-100.351929z" id="path3104" fill="#222b00"/>
   <path d="m1657.158813,1115.067627c58.12146,-77.108643 143.702026,-131.334717 269.729248,-151.855347c-93.796143,12.726074 -187.040161,30.835327 -269.729248,151.855347z" id="path3106" fill="#222b00"/>
   <path id="path3108" d="m1716.377686,1030.373047c11.284058,-38.534912 38.914063,-76.14563 59.629761,-103.746338c-23.657104,22.441772 -49.339966,47.211426 -59.629761,103.746338z" fill="#222b00"/>
   <path d="m1665.63208,996.328003c1.572144,-15.580444 9.477417,-31.974854 15.447144,-44.037354c-7.466064,10.2948 -15.542603,21.626831 -15.447144,44.037354z" id="path3110" fill="#222b00"/>
   <path d="m1790.903687,1029.41626c30.62915,12.391846 69.007446,13.763184 97.395752,14.486084c-26.560669,3.809082 -55.657959,7.737305 -97.395752,-14.486084z" id="path3112" fill="#222b00"/>
   <path id="path3114" d="m1733.888916,1083.021484c25.432251,21.093018 61.589355,34.032715 88.422852,43.326416c-26.465698,-4.420898 -55.384888,-9.497192 -88.422852,-43.326416z" fill="#222b00"/>
   <path d="m1664.055664,1148.724854c25.432251,21.093018 61.589233,34.032715 88.422852,43.326294c-26.465698,-4.420776 -55.384766,-9.497192 -88.422852,-43.326294z" id="path3116" fill="#222b00"/>
   <path d="m1494.680176,1376.302002c200.949951,149.114014 223.219849,228.124023 229.379883,279.285889c-4.77002,-49.816895 -62.73999,-151.886963 -250.610107,-279.285889l21.230225,0z" id="path3118" fill="#222b00"/>
   <path d="m1549.373535,1370.991943c49.597168,-38.939331 98.363403,-27.193481 146.545654,20.176514c-42.09082,-33.756104 -87.606201,-53.814453 -146.545654,-20.176514z" id="path3120" fill="#222b00"/>
   <path d="m1641.760986,1460.193604c38.642456,15.833496 74.090698,35.352539 94.511353,72.21106c-15.008423,-42.136597 -49.848145,-62.553345 -94.511353,-72.21106z" id="path3122" fill="#222b00"/>
   <path d="m1636.982422,1557.890869c-3.443604,38.40625 -3.518311,76.812622 8.495361,115.218994c-6.933105,-38.406372 -8.600708,-76.812744 -8.495361,-115.218994z" id="path3124" fill="#222b00"/>
   <path d="m1549.904297,1467.096191c-54.331055,65.131226 -54.446533,127.740845 -48.848389,190.084717c-16.513184,-104.566406 10.60376,-154.316162 48.848389,-190.084717z" id="path3126" fill="#222b00"/>
   <path d="m1461.764404,1418.778564c-53.927979,16.577148 -76.367188,41.821533 -74.334961,108.847412c1.726074,-44.35083 16.365967,-84.181763 74.334961,-108.847412z" id="path3128" fill="#222b00"/>
   <path d="m1033.006592,1512.148438c-8.761719,125.8125 113.140137,241.107788 136.663086,281.585693c-52.085938,-46.632446 -171.473389,-202.847778 -136.663086,-281.585693z" id="path3130" fill="#222b00"/>
   <path d="m1054.031738,1503.137695c51.296631,-8.761353 101.275879,-13.042969 132.908447,45.053711c-42.969727,-52.346924 -87.996094,-47.10083 -132.908447,-45.053711z" id="path3132" fill="#222b00"/>
   <path d="m1078.060303,1600.003174c73.042969,22.541504 87.928223,64.468994 115.637695,102.121704c-27.853271,-38.443481 -25.41748,-89.358765 -115.637695,-102.121704z" id="path3134" fill="#222b00"/>
   <path d="m1051.028076,1679.598022c-0.375488,19.272949 2.409424,38.546021 12.014404,57.81897c-16.990234,-17.974487 -14.584473,-37.88855 -12.014404,-57.81897z" id="path3136" fill="#222b00"/>
   <path d="m1012.732422,1545.187744c-35.032715,21.668457 -41.980469,62.485596 -33.039307,114.136108c-2.687012,-60.176147 9.710449,-95.985352 33.039307,-114.136108z" id="path3138" fill="#222b00"/>
   <path d="m317.01001,1550.457031c-10.399902,70.865967 -56.709961,144.7229 -168.849854,224.066895c56.629883,-29.719971 159.469971,-99.807983 181.589844,-220.880981l-12.73999,-3.185913z" id="path3140" fill="#222b00"/>
   <path d="m328.690186,1579.128906c16.72998,39.364014 61.129883,91.121094 13.799805,163.537109c74.360107,-73.523071 -7.709961,-140.993042 -13.799805,-185.837036l0,22.299927z" id="path3142" fill="#222b00"/>
   <path d="m428.510254,1549.395508c43.987793,9.509888 30.069092,47.973022 31.85791,78.58252c-0.192627,-34.72522 -1.185547,-68.79541 -31.85791,-78.58252z" id="path3144" fill="#222b00"/>
   <path d="m259.664063,1607.801392c-38.87793,22.128296 -77.370117,48.151245 -121.05957,75.396729c51.403564,-22.352539 86.188965,-50.490479 121.05957,-75.396729z" id="path3146" fill="#222b00"/>
   <path d="m288.336182,1541.961914c-37.561279,0.115356 -73.58667,9.444946 -108.316406,26.548218c31.942139,-21.636719 66.513916,-35.196777 108.316406,-26.548218z" id="path3148" fill="#222b00"/>
  </g>
  <g id="layer6">
   <path d="m799.850098,801.549927c-11.850098,8.580078 -131.540039,-2.429932 -162.189941,-109.630005c10.619873,78.590088 86.73999,151.700073 198.97998,114.140015l-36.790039,-4.51001z" id="path3157" fill-rule="nonzero" fill="#000000"/>
   <path d="m738.280029,764.01001c72.070068,-35.910034 137.73999,-6.090088 146.420166,27.029907l21.030029,-0.75c-11.670166,-26.449951 -47.920166,-39.459961 -85.610107,-51.809937c12.590088,-6.76001 39.01001,-9.75 73.590088,-10.51001c-36.76001,-1.079956 -55.100098,-19.440063 -159.940186,31.530029l4.51001,4.51001z" id="path3159" fill-rule="nonzero" fill="#000000"/>
   <path d="m850.159912,695.678345c-43.736084,-5.838257 -122.738525,-16.349121 -117.515137,-161.817871l10.887939,-27.407715c-11.719482,95.61731 15.588379,176.268066 106.627197,189.225586z" id="path3161" fill-rule="nonzero" fill="#000000"/>
   <path d="m775.821289,593.18103c5.874512,46.69812 71.200439,101.078735 112.258789,132.157593c-45.919922,-27.723145 -120.887939,-85.775879 -112.258789,-132.157593z" id="path3163" fill-rule="nonzero" fill="#000000"/>
   <path d="m1012.564209,464.078979c0,0 63.063232,-5.567627 81.768311,14.866943c24.84082,27.137817 1.132813,74.225464 10.088379,109.909302c3.648682,14.53894 17.554688,26.878906 12.211914,40.884277c-15.784424,41.378906 -79.336914,79.471802 -135.5979,95.158081c-39.989502,11.149658 -79.9729,5.724854 -79.9729,5.724854c0,0 37.728271,11.268677 77.151123,1.668701c58.581055,-14.265381 128.601318,-56.008301 146.384277,-98.834961c6.037598,-14.540161 -9.038086,-26.01416 -12.212158,-44.069946c-6.550049,-37.261353 16.514893,-85.680786 -9.557373,-113.095093c-20.923828,-22.000977 -90.263672,-12.212158 -90.263672,-12.212158z" id="path3165" fill-rule="nonzero" fill="#000000"/>
   <path d="m1061.912109,545.499268c6.583496,-1.881104 21.325928,32.984131 6.758057,57.067993c-5.330322,8.812134 17.327393,18.215454 13.516113,27.783081c-9.995605,25.092773 -51.261963,17.33374 -75.840332,28.53418c-22.522217,10.263306 -65.327881,35.291992 -65.327881,35.291992c-7.619873,4.116333 -17.385742,-6.393677 -20.554199,-7.940918c-55.472656,-27.089478 -105.273926,-62.428955 -132.148926,-96.134277c-30.617432,-38.398926 -0.547607,-163.684448 76.862549,-128.702393c-60.959717,-74.952515 -213.017334,132.924194 55.428467,233.147095c6.551025,2.445801 15.811279,8.165405 22.477051,4.886719c27.470215,-13.511719 50.03418,-30.073242 67.956055,-36.793823c0,0 65.830566,-5.396484 77.154541,-30.786743c5.035889,-11.291748 -16.826904,-18.994263 -11.263672,-30.035767c13.321533,-26.439087 -0.499268,-62.29541 -15.017822,-56.317139z" id="path3167" fill-rule="nonzero" fill="#000000"/>
   <path d="m828.320068,571.864502c29.217285,-62.935791 90.828369,-52.042725 122.652588,-48.848633c18.672607,55.580811 -36.590088,97.486694 -71.14917,101.414063c19.291748,3.893677 106.963623,-11.449219 72.210938,-118.935791c-56.713623,7.402832 -122.623779,6.057983 -123.714355,66.370361z" id="path3169" fill-rule="nonzero" fill="#000000"/>
   <path id="path3171" d="m852.751465,582.116577c21.987793,-29.692383 52.95459,-17.403931 69.210449,-12.325317c3.779053,30.991821 -29.53833,46.922729 -47.984619,45.265137c9.644531,4.099487 57.01709,5.498779 50.41748,-54.290161c-30.374023,-2.220703 -64.606689,-9.990112 -71.643311,21.350342z" fill-rule="nonzero" fill="#000000"/>
   <path d="m829.912842,534.697021c21.17627,-30.029907 28.146729,-61.416382 57.875,-89.201782c7.869873,-7.355591 39.63208,4.612427 74.336426,7.413452c5.09082,0.410889 11.158203,-2.378052 15.39624,0.551025c11.099609,7.671143 11.135254,18.318481 14.906006,29.078979c14.758057,42.115479 -6.750244,89.908813 -28.179932,107.909424c2.391357,0.217407 37.91748,-58.383545 22.726563,-90.32959c-5.083496,-10.69043 6.298096,-22.056396 -15.824219,-31.79187c-1.862061,-0.81958 -42.28833,-11.280029 -70.086914,-18.58374c-33.342041,23.917236 -48.879639,54.116821 -71.14917,84.954102z" id="path3173" fill-rule="nonzero" fill="#000000"/>
   <path d="m907.433594,358.151855c100.671875,63.350708 114.963867,131.590454 119.466553,176.01416c-7.955322,-55.591919 -74.52832,-136.970215 -119.466553,-176.01416z" id="path3175" fill-rule="nonzero" fill="#000000"/>
   <path d="m1002.591553,522.221558c83.715332,110.238403 -9.738525,101.668945 -90.858398,101.37085c60.300049,-10.095215 139.777588,-5.050049 90.858398,-101.37085z" id="path3177" fill-rule="nonzero" fill="#000000"/>
   <path d="m847.907227,646.870117c71.319092,-26.932373 -14.728516,-26.250488 -49.559082,-39.797363c36.814453,17.50354 85.198975,16.055786 49.559082,39.797363z" id="path3179" fill-rule="nonzero" fill="#000000"/>
   <path d="m879.444824,652.126343c17.520996,-3.940674 35.041748,-11.793213 52.562744,-4.505249c-11.579102,-5.76062 -23.373047,-11.258301 -52.562744,4.505249z" id="path3181" fill-rule="nonzero" fill="#000000"/>
  </g>
  <g id="layer7" filter="url(#filter3186)"/>
 </g>
</svg>